<svg width="23" height="22" viewBox="0 0 23 22" fill="none" xmlns="http://www.w3.org/2000/svg">
<g clip-path="url(#clip0_2_17)">
<rect width="23" height="22" fill="white"/>
<path d="M7.60306 7.4432L8.12307 7.36744L8.35563 6.89621L11.1627 1.20822C11.1628 1.20813 11.1628 1.20803 11.1629 1.20794C11.1629 1.20791 11.1629 1.20788 11.1629 1.20785C11.2982 0.934781 11.6966 0.926323 11.8376 1.20887C11.8377 1.20914 11.8379 1.20942 11.838 1.20969L14.6444 6.89621L14.8769 7.36744L15.3969 7.4432L21.6779 8.35833L21.6786 8.35843C21.9843 8.40275 22.1078 8.78163 21.8856 8.99789L21.8853 8.99816L17.3412 13.4234L16.9641 13.7906L17.0533 14.3093L18.128 20.5597C18.128 20.5598 18.128 20.5598 18.128 20.5599C18.179 20.8582 17.8612 21.0993 17.5841 20.9537L17.5839 20.9536L11.965 18.002L11.5 17.7577L11.035 18.002L5.41609 20.9536L5.41295 20.9552C5.14273 21.0984 4.82 20.8643 4.872 20.5599C4.87201 20.5598 4.87202 20.5598 4.87203 20.5597L5.94667 14.3093L6.03585 13.7906L5.65881 13.4234L1.1147 8.99816L1.11442 8.99789C0.892177 8.78163 1.01566 8.40275 1.32141 8.35843L1.32214 8.35833L7.60306 7.4432Z" stroke="#FFADAD" stroke-width="2"/>
</g>
<defs>
<clipPath id="clip0_2_17">
<rect width="23" height="22" fill="white"/>
</clipPath>
</defs>
</svg>
